<svg data-v-423bf9ae="" xmlns="http://www.w3.org/2000/svg" viewBox="0 0 900657 900000" class="iconLeft"><!----><!----><!----><g data-v-423bf9ae="" id="261d3d9a-f0a3-4fde-adcd-780ffa5e5119" fill="#000000" transform="matrix(5.8365760270947415,0,0,5.8365760270947415,900011.3574792036,449948.75361262046)"><path d="M4.27 13.75L1.48 13.75L1.48 3.95L4.05 3.95L4.05 3.95Q5.63 3.95 6.33 4.68L6.33 4.68L6.33 4.68Q7.04 5.42 7.04 6.51L7.04 6.51L7.04 6.51Q7.04 7.24 6.63 7.78L6.63 7.78L6.63 7.78Q6.22 8.32 5.50 8.58L5.50 8.58L5.50 8.58Q6.34 8.79 6.87 9.42L6.87 9.42L6.87 9.42Q7.39 10.04 7.39 11.00L7.39 11.00L7.39 11.00Q7.39 12.17 6.66 12.96L6.66 12.96L6.66 12.96Q5.92 13.75 4.27 13.75L4.27 13.75ZM2.46 4.83L2.46 8.23L3.81 8.23L3.81 8.23Q4.94 8.23 5.54 7.76L5.54 7.76L5.54 7.76Q6.13 7.29 6.13 6.48L6.13 6.48L6.13 6.48Q6.13 4.83 4.13 4.83L4.13 4.83L2.46 4.83ZM2.46 9.09L2.46 12.87L4.44 12.87L4.44 12.87Q5.54 12.87 6.01 12.36L6.01 12.36L6.01 12.36Q6.48 11.86 6.48 11.09L6.48 11.09L6.48 11.09Q6.48 9.09 3.98 9.09L3.98 9.09L2.46 9.09ZM12.49 13.92L12.49 13.92L12.49 13.92Q11.33 13.92 10.65 13.29L10.65 13.29L10.65 13.29Q9.97 12.67 9.97 11.49L9.97 11.49L9.97 11.49Q9.97 10.33 10.74 9.73L10.74 9.73L10.74 9.73Q11.51 9.13 12.66 9.13L12.66 9.13L12.66 9.13Q13.73 9.13 14.67 9.63L14.67 9.63L14.67 9.03L14.67 9.03Q14.67 7.28 13.10 7.28L13.10 7.28L13.10 7.28Q12.05 7.28 10.84 8.05L10.84 8.05L10.56 7.21L10.56 7.21Q11.86 6.43 13.20 6.43L13.20 6.43L13.20 6.43Q13.64 6.43 14.01 6.53L14.01 6.53L14.01 6.53Q14.39 6.64 14.76 6.90L14.76 6.90L14.76 6.90Q15.13 7.15 15.36 7.67L15.36 7.67L15.36 7.67Q15.58 8.18 15.58 8.90L15.58 8.90L15.58 13.75L14.67 13.75L14.67 13.05L14.67 13.05Q13.71 13.92 12.49 13.92ZM12.59 13.06L12.59 13.06L12.59 13.06Q13.78 13.06 14.67 11.96L14.67 11.96L14.67 10.57L14.67 10.57Q13.79 9.98 12.75 9.98L12.75 9.98L12.75 9.98Q11.94 9.98 11.41 10.37L11.41 10.37L11.41 10.37Q10.88 10.75 10.88 11.49L10.88 11.49L10.88 11.49Q10.88 12.21 11.33 12.64L11.33 12.64L11.33 12.64Q11.77 13.06 12.59 13.06ZM21.70 6.43L21.70 6.43L21.70 6.43Q23.07 6.43 23.71 7.22L23.71 7.22L23.71 7.22Q24.35 8.02 24.35 9.79L24.35 9.79L24.35 13.75L23.37 13.75L23.37 9.38L23.37 9.38Q23.37 8.30 22.89 7.81L22.89 7.81L22.89 7.81Q22.41 7.31 21.62 7.31L21.62 7.31L21.62 7.31Q19.77 7.31 19.77 9.35L19.77 9.35L19.77 13.75L18.79 13.75L18.79 6.59L19.71 6.59L19.71 7.45L19.71 7.45Q20.38 6.43 21.70 6.43ZM33.15 13.75L32.07 13.75L29.76 9.18L28.39 10.64L28.39 13.75L27.41 13.75L27.41 4.12L28.39 3.64L28.39 9.48L31.07 6.59L32.20 6.59L30.45 8.46L33.15 13.75ZM48.91 13.48L48.91 13.48L48.91 13.48Q48.27 13.92 47.43 13.92L47.43 13.92L47.43 13.92Q46.59 13.92 45.96 13.48L45.96 13.48L45.96 13.48Q45.32 13.03 44.97 12.29L44.97 12.29L44.97 12.29Q44.62 11.54 44.45 10.68L44.45 10.68L44.45 10.68Q44.28 9.81 44.28 8.85L44.28 8.85L44.28 8.85Q44.28 7.88 44.45 7.02L44.45 7.02L44.45 7.02Q44.62 6.16 44.97 5.41L44.97 5.41L44.97 5.41Q45.32 4.66 45.96 4.22L45.96 4.22L45.96 4.22Q46.59 3.78 47.43 3.78L47.43 3.78L47.43 3.78Q48.27 3.78 48.91 4.22L48.91 4.22L48.91 4.22Q49.55 4.66 49.90 5.41L49.90 5.41L49.90 5.41Q50.25 6.16 50.41 7.02L50.41 7.02L50.41 7.02Q50.58 7.88 50.58 8.85L50.58 8.85L50.58 8.85Q50.58 9.81 50.41 10.68L50.41 10.68L50.41 10.68Q50.25 11.54 49.90 12.29L49.90 12.29L49.90 12.29Q49.55 13.03 48.91 13.48ZM47.43 13.03L47.43 13.03L47.43 13.03Q47.99 13.03 48.43 12.66L48.43 12.66L48.43 12.66Q48.86 12.29 49.10 11.66L49.10 11.66L49.10 11.66Q49.34 11.03 49.45 10.33L49.45 10.33L49.45 10.33Q49.56 9.62 49.56 8.85L49.56 8.85L49.56 8.85Q49.56 8.01 49.45 7.29L49.45 7.29L49.45 7.29Q49.34 6.57 49.10 5.96L49.10 5.96L49.10 5.96Q48.86 5.36 48.43 5.01L48.43 5.01L48.43 5.01Q48.01 4.66 47.43 4.66L47.43 4.66L47.43 4.66Q46.87 4.66 46.44 5.03L46.44 5.03L46.44 5.03Q46.00 5.40 45.77 6.03L45.77 6.03L45.77 6.03Q45.53 6.66 45.42 7.37L45.42 7.37L45.42 7.37Q45.30 8.08 45.30 8.85L45.30 8.85L45.30 8.85Q45.30 9.69 45.42 10.41L45.42 10.41L45.42 10.41Q45.53 11.13 45.77 11.73L45.77 11.73L45.77 11.73Q46.00 12.33 46.43 12.68L46.43 12.68L46.43 12.68Q46.86 13.03 47.43 13.03ZM57.18 4.69L57.18 4.69L57.18 4.69Q56.81 4.69 56.60 4.76L56.60 4.76L56.60 4.76Q56.38 4.83 56.29 4.99L56.29 4.99L56.29 4.99Q56.20 5.15 56.18 5.29L56.18 5.29L56.18 5.29Q56.15 5.42 56.15 5.67L56.15 5.67L56.15 6.59L58.06 6.59L58.06 7.48L56.15 7.48L56.15 12.87L58.06 12.87L58.06 13.75L53.69 13.75L53.69 12.87L55.17 12.87L55.17 7.48L53.69 7.48L53.69 6.59L55.17 6.59L55.17 5.52L55.17 5.52Q55.17 4.59 55.70 4.19L55.70 4.19L55.70 4.19Q56.22 3.78 57.08 3.78L57.08 3.78L57.08 3.78Q57.82 3.78 58.58 4.12L58.58 4.12L58.58 5.00L58.58 5.00Q57.93 4.69 57.18 4.69ZM73.36 13.92L73.36 13.92L73.36 13.92Q72.28 13.92 71.48 13.34L71.48 13.34L71.48 13.34Q70.69 12.77 70.41 11.93L70.41 11.93L71.33 11.59L71.33 11.59Q71.60 12.25 72.13 12.64L72.13 12.64L72.13 12.64Q72.66 13.03 73.36 13.03L73.36 13.03L73.36 13.03Q74.20 13.03 74.68 12.57L74.68 12.57L74.68 12.57Q75.15 12.10 75.15 11.23L75.15 11.23L75.15 11.23Q75.15 9.77 73.21 8.93L73.21 8.93L73.21 8.93Q72.67 8.69 72.29 8.48L72.29 8.48L72.29 8.48Q71.90 8.26 71.50 7.92L71.50 7.92L71.50 7.92Q71.09 7.59 70.88 7.11L70.88 7.11L70.88 7.11Q70.67 6.64 70.67 6.06L70.67 6.06L70.67 6.06Q70.67 5.10 71.37 4.44L71.37 4.44L71.37 4.44Q72.07 3.78 73.25 3.78L73.25 3.78L73.25 3.78Q74.19 3.78 74.84 4.21L74.84 4.21L74.84 4.21Q75.50 4.65 75.68 5.33L75.68 5.33L74.77 5.64L74.77 5.64Q74.62 5.22 74.21 4.94L74.21 4.94L74.21 4.94Q73.81 4.66 73.22 4.66L73.22 4.66L73.22 4.66Q72.51 4.66 72.09 5.04L72.09 5.04L72.09 5.04Q71.68 5.42 71.68 6.05L71.68 6.05L71.68 6.05Q71.68 6.75 72.19 7.18L72.19 7.18L72.19 7.18Q72.70 7.60 73.67 8.02L73.67 8.02L73.67 8.02Q74.17 8.25 74.56 8.49L74.56 8.49L74.56 8.49Q74.94 8.74 75.33 9.11L75.33 9.11L75.33 9.11Q75.73 9.48 75.94 10.01L75.94 10.01L75.94 10.01Q76.16 10.54 76.16 11.20L76.16 11.20L76.16 11.20Q76.16 12.47 75.39 13.20L75.39 13.20L75.39 13.20Q74.62 13.92 73.36 13.92ZM82.42 3.64L82.42 12.87L84.39 12.87L84.39 13.75L79.46 13.75L79.46 12.87L81.44 12.87L81.44 4.52L79.69 4.52L79.25 3.64L82.42 3.64ZM92.95 12.92L92.95 12.92L92.95 12.92Q92.05 13.92 90.55 13.92L90.55 13.92L90.55 13.92Q89.05 13.92 88.15 12.93L88.15 12.93L88.15 12.93Q87.25 11.94 87.25 10.18L87.25 10.18L87.25 10.18Q87.25 8.43 88.15 7.43L88.15 7.43L88.15 7.43Q89.05 6.43 90.55 6.43L90.55 6.43L90.55 6.43Q92.05 6.43 92.95 7.41L92.95 7.41L92.95 7.41Q93.86 8.40 93.86 10.16L93.86 10.16L93.86 10.16Q93.86 11.91 92.95 12.92ZM90.55 13.03L90.55 13.03L90.55 13.03Q91.63 13.03 92.23 12.27L92.23 12.27L92.23 12.27Q92.83 11.51 92.83 10.16L92.83 10.16L92.83 10.16Q92.83 8.81 92.25 8.06L92.25 8.06L92.25 8.06Q91.66 7.31 90.55 7.31L90.55 7.31L90.55 7.31Q89.43 7.31 88.85 8.04L88.85 8.04L88.85 8.04Q88.27 8.78 88.27 10.18L88.27 10.18L88.27 10.18Q88.27 11.54 88.86 12.29L88.86 12.29L88.86 12.29Q89.45 13.03 90.55 13.03ZM99.82 13.92L99.82 13.92L99.82 13.92Q98.13 13.92 98.13 12.21L98.13 12.21L98.13 7.48L96.43 7.48L96.43 6.59L98.13 6.59L98.13 4.13L99.11 3.64L99.11 6.59L101.50 6.59L101.50 7.48L99.11 7.48L99.11 11.79L99.11 11.79Q99.11 12.39 99.31 12.69L99.31 12.69L99.31 12.69Q99.51 12.99 100.16 12.99L100.16 12.99L100.16 12.99Q100.90 12.99 101.51 12.57L101.51 12.57L101.40 13.59L101.40 13.59Q100.80 13.92 99.82 13.92ZM106.01 13.75L105.03 13.75L105.03 4.10L106.01 3.64L106.01 7.39L106.01 7.39Q106.67 6.43 107.94 6.43L107.94 6.43L107.94 6.43Q109.31 6.43 109.95 7.22L109.95 7.22L109.95 7.22Q110.59 8.02 110.59 9.79L110.59 9.79L110.59 13.75L109.61 13.75L109.61 9.38L109.61 9.38Q109.61 8.30 109.13 7.81L109.13 7.81L109.13 7.81Q108.65 7.31 107.86 7.31L107.86 7.31L107.86 7.31Q106.01 7.31 106.01 9.35L106.01 9.35L106.01 13.75Z"></path></g><defs data-v-423bf9ae=""><linearGradient data-v-423bf9ae="" gradientTransform="rotate(25)" id="f5d85177-eadb-498e-964b-e2fbdf822ee2" x1="0%" y1="0%" x2="100%" y2="0%"><stop data-v-423bf9ae="" offset="0%" style="stop-color: rgb(0, 118, 221); stop-opacity: 1;"></stop><stop data-v-423bf9ae="" offset="100%" style="stop-color: rgb(230, 0, 233); stop-opacity: 1;"></stop></linearGradient></defs><g data-v-423bf9ae="" id="1de10c60-7ba6-45b0-aa9a-3a0e6c53a57e" transform="matrix(100,0,0,100,-50000,-50000)" stroke="none" fill="url(#f5d85177-eadb-498e-964b-e2fbdf822ee2)"><path d="M9500 500v9000H500V500h9000zm-493 493H993v8014h8014V993zM6849 6060h-610V4571h610v-496l-1849-924-1849 924v496h610v1489h-610v789h3698v-789zM5744 4571v1489h-496V4571h496zm-992 0v1489h-496V4571h496z"></path></g><!----></svg>